<svg width="15" height="15" viewBox="0 0 15 15" fill="none" xmlns="http://www.w3.org/2000/svg">
<g clip-path="url(#clip0_1_4)">
<path d="M7.50005 0C3.35843 0 0 3.44279 0 7.68989C0 11.0875 2.14899 13.9699 5.12902 14.9868C5.50383 15.0579 5.64145 14.8199 5.64145 14.6169C5.64145 14.4335 5.63447 13.8277 5.63123 13.1851C3.54473 13.6503 3.10445 12.2778 3.10445 12.2778C2.76328 11.389 2.2717 11.1526 2.2717 11.1526C1.59122 10.6754 2.323 10.6852 2.323 10.6852C3.07613 10.7394 3.4727 11.4776 3.4727 11.4776C4.14163 12.6532 5.22722 12.3134 5.65523 12.1169C5.72255 11.6199 5.91689 11.2807 6.13139 11.0886C4.46554 10.8941 2.71434 10.2348 2.71434 7.28826C2.71434 6.44866 3.00733 5.76272 3.48711 5.22418C3.40923 5.03046 3.15252 4.24835 3.55976 3.18913C3.55976 3.18913 4.18957 2.98246 5.6228 3.97737C6.22106 3.80699 6.86269 3.72154 7.50005 3.71861C8.13745 3.72154 8.77955 3.80699 9.37894 3.97737C10.8105 2.98246 11.4394 3.18913 11.4394 3.18913C11.8476 4.24835 11.5908 5.03046 11.5129 5.22418C11.9938 5.76272 12.2848 6.44866 12.2848 7.28826C12.2848 10.2418 10.5302 10.8921 8.86017 11.0825C9.12919 11.3211 9.36886 11.7891 9.36886 12.5065C9.36886 13.5355 9.36019 14.3636 9.36019 14.6169C9.36019 14.8215 9.49519 15.0613 9.87534 14.9858C12.8537 13.9678 15 11.0863 15 7.68989C15 3.44279 11.6421 0 7.50005 0ZM2.80902 10.9544C2.7925 10.9926 2.73388 11.004 2.68047 10.9778C2.62607 10.9527 2.59552 10.9007 2.61316 10.8623C2.6293 10.823 2.68805 10.812 2.74232 10.8384C2.79684 10.8635 2.82789 10.9161 2.80902 10.9544ZM3.17794 11.2919C3.14217 11.3259 3.07224 11.3101 3.0248 11.2564C2.97574 11.2028 2.96655 11.1311 3.00282 11.0965C3.0397 11.0626 3.10752 11.0785 3.1567 11.1321C3.20576 11.1863 3.21532 11.2575 3.17794 11.2919ZM3.43103 11.7238C3.38508 11.7565 3.30994 11.7258 3.26349 11.6574C3.21753 11.589 3.21753 11.507 3.26448 11.4741C3.31105 11.4413 3.38508 11.4708 3.43215 11.5387C3.47797 11.6083 3.47798 11.6903 3.43103 11.7238ZM3.85906 12.2239C3.81795 12.2704 3.7304 12.2579 3.66631 12.1944C3.60073 12.1324 3.58247 12.0444 3.62371 11.9979C3.66532 11.9513 3.75337 11.9644 3.81795 12.0274C3.88304 12.0893 3.90291 12.1779 3.85906 12.2239ZM4.41225 12.3927C4.39412 12.4529 4.3098 12.4803 4.22484 12.4547C4.14001 12.4284 4.0845 12.3578 4.10164 12.2969C4.11927 12.2363 4.20398 12.2078 4.28955 12.2352C4.37425 12.2614 4.42989 12.3314 4.41225 12.3927ZM5.04183 12.4643C5.04394 12.5277 4.97189 12.5803 4.88273 12.5815C4.79306 12.5835 4.7205 12.5322 4.71952 12.4698C4.71952 12.4058 4.78992 12.3537 4.87959 12.3521C4.9688 12.3503 5.04183 12.4013 5.04183 12.4643ZM5.6603 12.44C5.67098 12.5019 5.60897 12.5655 5.52042 12.5824C5.43338 12.5987 5.35275 12.5605 5.34173 12.4991C5.33091 12.4357 5.394 12.3721 5.48095 12.3557C5.56964 12.3399 5.649 12.3771 5.6603 12.44Z" fill="#161614"/>
</g>
<defs>
<clipPath id="clip0_1_4">
<rect width="15" height="15" fill="white"/>
</clipPath>
</defs>
</svg>
