<svg width="19" height="15" viewBox="0 0 19 15" fill="none" xmlns="http://www.w3.org/2000/svg">
<g clip-path="url(#clip0_2_16)">
<path d="M2.23924 3.06028C2.26301 2.82954 2.17296 2.5988 2.001 2.44247L0.238244 0.316408V0H5.71723L9.95373 9.28964L13.6781 0H18.9032V0.316408L17.3949 1.76276C17.2661 1.8603 17.1992 2.02476 17.2267 2.18484V12.8152C17.1992 12.9752 17.2661 13.1397 17.3949 13.2372L18.8682 14.6836V15H11.4545V14.6836L12.9827 13.2022C13.1316 13.0534 13.1316 13.0065 13.1316 12.7801V4.18959L8.88319 14.9725H8.30853L3.36856 4.18959V11.4157C3.32541 11.7202 3.42734 12.0254 3.64245 12.2442L5.62781 14.6517V14.9681H0V14.6555L1.98537 12.2442C2.1961 12.0254 2.29427 11.7165 2.23924 11.4157V3.06028Z" fill="black"/>
</g>
<defs>
<clipPath id="clip0_2_16">
<rect width="19" height="15" fill="white"/>
</clipPath>
</defs>
</svg>
